# xmcd
#
# Track frame offsets:
#	150
#	11932
#	23073
#	31702
#	40432
#	50920
#	61295
#	71877
#	82588
#	89367
#	98001
#	107857
#	119186
#	129598
#
# Disc length: 1887 seconds
#
# Revision: 0
# Processed by: cddbd v1.5.1PL2 Copyright (c) Steve Scherf et al.
# Submitted via: dBpowerAMP V4.0
#
DISCID=c0075d0e
DTITLE=Waylon Jennings - Burning Memories
DYEAR=2003
DGENRE=Country
TTITLE0=Crying
TTITLE1=Big Mamou
TTITLE2=Abilene
TTITLE3=Jole Blon
TTITLE4=White Lightning
TTITLE5=Money
TTITLE6=Burning Memories
TTITLE7=Dream Baby
TTITLE8=It's So Easy
TTITLE9=Loves Gonna Live Here
TTITLE10=When Sin Stops, Love Begins
TTITLE11=Sally Was A Good Ols Girl
TTITLE12=Lorena
TTITLE13=Don't Think Twice, It's Alright
EXTD=
EXTT0=
EXTT1=
EXTT2=
EXTT3=
EXTT4=
EXTT5=
EXTT6=
EXTT7=
EXTT8=
EXTT9=
EXTT10=
EXTT11=
EXTT12=
EXTT13=
PLAYORDER=
